<?xml version="1.0" encoding="UTF-8"?>
<svg id="Capa_1" xmlns="http://www.w3.org/2000/svg" version="1.1" viewBox="0 0 400 149.07">
  <!-- Generator: Adobe Illustrator 30.2.1, SVG Export Plug-In . SVG Version: 2.1.1 Build 1)  -->
  <defs>
    <style>
      .st0 {
        fill: #64257e;
      }

      .st1 {
        fill: #eb8b0a;
      }

      .st2 {
        fill: #e35415;
      }

      .st3 {
        fill: #a11462;
      }

      .st4 {
        fill: #634839;
      }

      .st5 {
        fill: #d10c53;
      }

      .st6 {
        fill: #f6e41a;
      }

      .st7 {
        fill: #804391;
      }

      .st8 {
        fill: #2a2f73;
      }

      .st9 {
        fill: #d8d802;
      }

      .st10 {
        fill: #f6c401;
      }

      .st11 {
        fill: #93bc21;
      }

      .st12 {
        fill: #2e9cd7;
      }

      .st13 {
        fill: #fdd700;
      }

      .st14 {
        fill: #3370b5;
      }

      .st15, .st16 {
        fill: #010101;
      }

      .st17 {
        fill: #159e91;
      }

      .st18 {
        fill: #0d652e;
      }

      .st19 {
        fill: #209638;
      }

      .st20 {
        fill: #bd418c;
      }

      .st16 {
        font-family: ITCAvantGardePro-Bk, 'ITC Avant Garde Gothic Pro';
        font-size: 14.77px;
      }
    </style>
  </defs>
  <text class="st16" transform="translate(245.62 97.13)"><tspan x="0" y="0">®</tspan></text>
  <g>
    <path class="st15" d="M17.77,56.05c-.4-2.64-1.49-3.59-3.34-3.59-1.75,0-3.24,1.25-3.24,2.89,0,2.19,1.99,3.19,6.03,4.93,8.12,3.49,10.17,6.43,10.17,11.26,0,7.13-4.88,11.31-12.86,11.31s-13.31-4.19-13.31-12.11v-.8h9.37c.05,3.04,1.54,5.03,3.89,5.03,1.94,0,3.54-1.54,3.54-3.54,0-2.94-4.09-4.24-7.43-5.58-6.03-2.44-8.77-5.63-8.77-10.42,0-6.28,6.08-10.86,12.86-10.86,2.44,0,4.59.55,6.53,1.54,3.94,2.04,5.83,4.98,5.88,9.92h-9.32Z"/>
    <path class="st15" d="M52.15,82.16l-1.79-5.33h-12.81l-1.94,5.33h-10.12l14.8-36.88h7.43l14.65,36.88h-10.22ZM44.08,56.79l-.15-.05-3.79,12.61h7.73l-3.79-12.56Z"/>
    <path class="st15" d="M85.59,82.16l-14.15-22.53.25,22.53h-9.02v-36.88h8.12l14.35,23.32-.4-23.32h9.02v36.88h-8.17Z"/>
    <path class="st15" d="M120.78,82.16l-1.79-5.33h-12.81l-1.94,5.33h-10.12l14.8-36.88h7.43l14.65,36.88h-10.22ZM112.7,56.79l-.15-.05-3.79,12.61h7.73l-3.79-12.56Z"/>
  </g>
  <g>
    <path class="st15" d="M97.17,37.11V13.61h2.35v23.5h-2.35Z"/>
    <path class="st15" d="M122.25,37.11l-13.94-20.67h-.06v20.67h-2.35V13.61h3.18l13.11,19.5h.06V13.61h2.35v23.5h-2.35Z"/>
    <path class="st15" d="M140.7,19.58c0-2.41-1.97-4.25-4.16-4.25-2.41,0-4.26,1.81-4.26,4.1,0,2,1.21,3.24,4.54,4.1,5.08,1.3,6.8,3.94,6.8,7.11,0,3.84-3.14,6.89-7.08,6.89-4.16,0-7.18-2.79-7.24-6.99h2.35c.16,3.02,2.06,4.86,4.89,4.86,2.67,0,4.73-2.1,4.73-4.67s-1.68-3.97-4.76-4.86c-3.37-.95-6.57-2.06-6.57-6.35,0-3.72,2.98-6.32,6.6-6.32s6.51,2.76,6.51,6.38h-2.35Z"/>
    <path class="st15" d="M151.59,37.11V15.74h-5.4v-2.13h13.11v2.13h-5.37v21.37h-2.35Z"/>
    <path class="st15" d="M163.52,37.11V13.61h2.35v23.5h-2.35Z"/>
    <path class="st15" d="M175.46,37.11V15.74h-5.4v-2.13h13.11v2.13h-5.37v21.37h-2.35Z"/>
    <path class="st15" d="M201.02,13.61h2.35v14.89c0,5.94-3.46,9.02-8,9.02s-8-2.98-8-9.08v-14.83h2.35v14.96c0,4.73,2.54,6.83,5.65,6.83,2.7,0,5.65-1.68,5.65-6.8v-14.99Z"/>
    <path class="st15" d="M212.96,37.11V15.74h-5.4v-2.13h13.11v2.13h-5.37v21.37h-2.35Z"/>
    <path class="st15" d="M236.26,37.53c-6.41,0-12.42-5.21-12.42-12.03s5.53-12.29,12.42-12.29,12.45,5.46,12.45,12.16-5.62,12.16-12.45,12.16ZM236.23,15.33c-5.56,0-10.03,4.7-10.03,10.16s4.6,9.91,10.07,9.91,10.1-4.6,10.1-10-4.48-10.07-10.13-10.07Z"/>
  </g>
  <g>
    <path class="st15" d="M26.13,103.44c-.63-4.17-2.36-5.67-5.27-5.67-2.75,0-5.12,1.97-5.12,4.57,0,3.46,3.15,5.04,9.52,7.79,12.83,5.51,16.06,10.15,16.06,17.79,0,11.26-7.71,17.87-20.31,17.87S0,139.18,0,126.66v-1.26h14.8c.08,4.8,2.44,7.95,6.14,7.95,3.07,0,5.59-2.44,5.59-5.59,0-4.64-6.45-6.69-11.73-8.82-9.52-3.86-13.85-8.89-13.85-16.45,0-9.92,9.6-17.16,20.31-17.16,3.86,0,7.24.87,10.31,2.44,6.22,3.23,9.21,7.87,9.29,15.66h-14.72Z"/>
    <path class="st15" d="M80.44,144.69l-2.83-8.42h-20.23l-3.07,8.42h-15.98l23.38-58.25h11.73l23.14,58.25h-16.14ZM67.69,104.62l-.24-.08-5.98,19.91h12.2l-5.98-19.84Z"/>
    <path class="st15" d="M133.25,144.69l-22.35-35.58.39,35.58h-14.25v-58.25h12.83l22.67,36.84-.63-36.84h14.25v58.25h-12.91Z"/>
    <path class="st15" d="M188.82,144.69l-2.83-8.42h-20.23l-3.07,8.42h-15.98l23.38-58.25h11.73l23.14,58.25h-16.14ZM176.07,104.62l-.24-.08-5.98,19.91h12.2l-5.98-19.84Z"/>
    <path class="st15" d="M233.29,144.69l-13.46-18.81h-.16v18.81h-14.25v-58.25h19.05c6.06,0,10.7.79,13.77,2.13,6.3,2.83,10.7,9.68,10.7,17.95,0,9.21-5.51,16.77-14.48,18.34l15.82,19.84h-17ZM225.18,115.72c5.9,0,9.52-2.76,9.52-8.34,0-5.04-3.78-7.87-9.37-7.87h-5.67v16.21h5.51Z"/>
  </g>
  <g>
    <path class="st15" d="M134.73,82.16v-36.88h11.16c10.17,0,13.21,6.03,13.21,11.11s-3.19,10.91-13.26,10.91h-7.43v14.85h-3.69ZM146.64,63.97c5.13,0,8.77-3.09,8.77-7.68,0-3.69-2.34-7.68-9.57-7.68h-7.43v15.35h8.22Z"/>
    <path class="st15" d="M185.81,82.16l-5.33-12.41h-17.15l-5.38,12.41h-3.84l15.75-36.88h4.14l15.85,36.88h-4.04ZM171.96,49.47l-7.23,16.95h14.3l-7.08-16.95Z"/>
    <path class="st15" d="M210.43,82.16l-12.51-16.7h3.59c6.53,0,10.42-3.34,10.42-8.37,0-3.49-2.14-8.47-10.62-8.47h-7.03v33.54h-3.69v-36.88h11.11c9.62,0,13.91,5.68,13.91,11.91s-4.49,10.72-10.96,11.21l10.42,13.76h-4.63Z"/>
    <path class="st15" d="M246.36,82.16l-5.33-12.41h-17.15l-5.38,12.41h-3.84l15.75-36.88h4.14l15.85,36.88h-4.04ZM232.51,49.47l-7.23,16.95h14.3l-7.08-16.95Z"/>
  </g>
  <g>
    <path class="st7" d="M327.95,43.69c.55.54.98,1.09,1.38,1.63.39.54.74,1.09,1.05,1.63.62,1.09,1.1,2.17,1.46,3.26.74,2.17,1.06,4.35,1.07,6.52,0,2.17-.32,4.35-1.05,6.52-.37,1.09-.85,2.17-1.47,3.26-.31.55-.66,1.09-1.05,1.63-.4.54-.83,1.09-1.38,1.63-.55-.54-.99-1.09-1.39-1.63-.39-.55-.74-1.09-1.05-1.63-.62-1.09-1.1-2.17-1.47-3.26-.74-2.17-1.06-4.35-1.05-6.52,0-2.17.33-4.35,1.07-6.52.37-1.09.85-2.17,1.47-3.26.31-.55.65-1.09,1.04-1.63.4-.54.83-1.09,1.38-1.63Z"/>
    <path class="st5" d="M327.95,13.92c.55.55.98,1.09,1.38,1.63.39.55.74,1.09,1.05,1.63.62,1.09,1.1,2.18,1.46,3.26.74,2.17,1.06,4.35,1.07,6.52,0,2.17-.32,4.35-1.05,6.52-.37,1.08-.85,2.17-1.47,3.26-.31.54-.66,1.09-1.05,1.63-.4.54-.83,1.09-1.38,1.63-.55-.54-.99-1.09-1.39-1.63-.39-.55-.74-1.09-1.05-1.63-.62-1.08-1.1-2.17-1.47-3.26-.74-2.18-1.06-4.35-1.05-6.52,0-2.17.33-4.35,1.07-6.52.37-1.09.85-2.17,1.47-3.26.31-.54.65-1.08,1.04-1.63.4-.54.83-1.08,1.38-1.63Z"/>
    <path class="st13" d="M342.33,0c.44.63.77,1.25,1.06,1.85.29.61.53,1.21.73,1.8.41,1.18.68,2.34.85,3.47.33,2.27.25,4.47-.14,6.61-.39,2.14-1.1,4.22-2.22,6.22-.56,1-1.23,1.98-2.04,2.94-.4.48-.84.95-1.33,1.41-.49.46-1.01.92-1.66,1.35-.45-.63-.77-1.25-1.06-1.85-.29-.61-.53-1.21-.74-1.8-.41-1.18-.68-2.33-.85-3.47-.33-2.27-.25-4.47.15-6.6.4-2.14,1.11-4.22,2.24-6.22.56-1,1.23-1.98,2.03-2.94.4-.48.84-.95,1.33-1.41.49-.46,1.01-.92,1.65-1.35Z"/>
    <path class="st11" d="M306.45,50.91c.76.14,1.42.35,2.06.57.63.23,1.22.48,1.78.76,1.12.55,2.13,1.18,3.05,1.87,1.84,1.38,3.33,3,4.55,4.79,1.23,1.79,2.19,3.77,2.8,5.98.31,1.1.52,2.28.63,3.52.05.62.07,1.27.05,1.94-.02.67-.07,1.36-.23,2.12-.77-.14-1.43-.34-2.06-.57-.63-.23-1.23-.48-1.79-.75-1.12-.55-2.13-1.18-3.05-1.87-1.83-1.38-3.32-3-4.54-4.8-1.22-1.8-2.18-3.78-2.79-5.99-.31-1.11-.52-2.28-.62-3.52-.05-.62-.07-1.27-.05-1.94.02-.67.07-1.36.22-2.12Z"/>
    <path class="st0" d="M288.97,26.96c.77.05,1.45.19,2.11.34.65.16,1.27.35,1.86.56,1.18.42,2.25.94,3.24,1.52,1.98,1.17,3.63,2.61,5.05,4.26,1.42,1.65,2.59,3.51,3.45,5.64.43,1.06.77,2.2,1.01,3.43.12.61.21,1.25.27,1.92.05.67.08,1.37,0,2.14-.78-.05-1.46-.18-2.11-.33-.65-.15-1.27-.34-1.86-.55-1.18-.42-2.25-.93-3.24-1.52-1.97-1.17-3.63-2.61-5.04-4.27-1.41-1.65-2.58-3.51-3.44-5.64-.43-1.07-.77-2.21-1.01-3.43-.12-.61-.21-1.25-.27-1.92-.05-.67-.08-1.36-.02-2.14Z"/>
    <path class="st9" d="M311.33,26.96c.69.35,1.26.73,1.81,1.13.54.4,1.04.81,1.5,1.23.92.85,1.71,1.73,2.39,2.66,1.37,1.84,2.34,3.81,3.02,5.88.67,2.07,1.03,4.23,1,6.53-.02,1.15-.14,2.33-.39,3.55-.13.61-.29,1.24-.5,1.88-.22.64-.46,1.29-.82,1.98-.69-.35-1.27-.73-1.82-1.12-.54-.4-1.04-.81-1.5-1.23-.92-.84-1.71-1.73-2.4-2.65-1.37-1.85-2.34-3.81-3-5.89-.66-2.07-1.02-4.24-.99-6.53.02-1.15.14-2.33.39-3.55.13-.61.29-1.24.5-1.88.21-.64.46-1.29.81-1.97Z"/>
    <path class="st8" d="M291.56,71.91c.66-.4,1.29-.69,1.91-.95.62-.25,1.23-.46,1.83-.63,1.2-.34,2.37-.55,3.52-.65,2.29-.2,4.47,0,6.59.51,2.11.51,4.15,1.34,6.09,2.57.97.61,1.91,1.34,2.82,2.2.45.43.9.9,1.33,1.41.43.52.86,1.06,1.26,1.73-.66.41-1.29.7-1.91.96-.62.25-1.23.46-1.83.63-1.2.34-2.37.55-3.51.65-2.29.2-4.48-.01-6.58-.53-2.11-.52-4.15-1.35-6.08-2.58-.97-.61-1.91-1.34-2.82-2.19-.45-.43-.9-.9-1.33-1.4-.44-.52-.86-1.06-1.26-1.73Z"/>
    <path class="st17" d="M294.41,98.45c.21-.75.48-1.38.76-1.99.29-.61.59-1.17.92-1.7.65-1.07,1.38-2.01,2.15-2.86,1.55-1.7,3.3-3.03,5.2-4.08,1.9-1.05,3.96-1.83,6.22-2.23,1.13-.2,2.31-.31,3.57-.29.62,0,1.27.05,1.93.13.67.09,1.35.2,2.1.43-.21.75-.48,1.39-.76,2-.29.61-.59,1.17-.92,1.71-.65,1.07-1.38,2.01-2.15,2.86-1.55,1.7-3.3,3.02-5.2,4.07-1.91,1.04-3.96,1.81-6.22,2.22-1.13.2-2.32.31-3.57.29-.62,0-1.27-.05-1.93-.13-.67-.09-1.35-.2-2.09-.42Z"/>
    <path class="st11" d="M270.8,60.02c.64-.43,1.26-.74,1.87-1.03.61-.27,1.21-.5,1.81-.7,1.19-.39,2.35-.64,3.49-.79,2.28-.29,4.47-.16,6.6.26,2.13.43,4.2,1.18,6.18,2.34.99.58,1.96,1.27,2.9,2.09.47.41.93.86,1.39,1.36.45.5.9,1.03,1.32,1.68-.65.43-1.26.75-1.88,1.03-.61.28-1.21.51-1.81.7-1.19.39-2.35.64-3.49.79-2.28.29-4.47.16-6.6-.27-2.13-.44-4.19-1.19-6.18-2.35-.99-.58-1.96-1.27-2.9-2.09-.47-.41-.94-.86-1.39-1.35-.45-.5-.9-1.03-1.32-1.68Z"/>
    <path class="st3" d="M283.21,44.12c.76-.13,1.45-.15,2.13-.15.67,0,1.31.04,1.93.11,1.24.14,2.4.39,3.5.73,2.19.68,4.14,1.7,5.9,2.97,1.76,1.28,3.33,2.81,4.66,4.68.66.94,1.26,1.97,1.78,3.11.26.57.49,1.17.7,1.81.2.64.39,1.31.51,2.08-.77.13-1.46.16-2.14.16-.67,0-1.31-.04-1.94-.11-1.24-.14-2.4-.39-3.5-.73-2.19-.68-4.14-1.7-5.9-2.99-1.75-1.28-3.32-2.82-4.65-4.69-.66-.94-1.26-1.96-1.78-3.1-.26-.57-.5-1.17-.7-1.8-.21-.64-.4-1.31-.51-2.08Z"/>
    <path class="st11" d="M271.72,86.16c.51-.58,1.02-1.05,1.54-1.48.52-.42,1.03-.8,1.56-1.15,1.04-.68,2.1-1.24,3.16-1.68,2.12-.88,4.27-1.34,6.44-1.49,2.17-.15,4.36.03,6.58.62,1.11.3,2.22.71,3.35,1.25.56.27,1.13.59,1.7.94.57.37,1.14.76,1.72,1.28-.5.59-1.02,1.05-1.54,1.49-.52.43-1.04.81-1.56,1.16-1.04.69-2.09,1.24-3.16,1.68-2.12.88-4.27,1.34-6.44,1.48-2.17.14-4.36-.04-6.58-.63-1.11-.3-2.22-.71-3.35-1.25-.56-.27-1.13-.58-1.7-.94-.57-.36-1.14-.75-1.72-1.27Z"/>
    <path class="st19" d="M349.44,52.94c-.77.05-1.45.19-2.11.34-.65.16-1.26.35-1.85.56-1.18.42-2.25.93-3.24,1.52-1.98,1.17-3.64,2.61-5.06,4.26-1.42,1.65-2.59,3.51-3.45,5.63-.42,1.06-.77,2.2-1.01,3.43-.12.62-.21,1.25-.26,1.92-.05.67-.08,1.37,0,2.14.77-.05,1.46-.18,2.11-.34.65-.15,1.27-.34,1.86-.55,1.18-.42,2.25-.94,3.24-1.52,1.97-1.17,3.63-2.61,5.04-4.27,1.41-1.65,2.58-3.51,3.44-5.64.43-1.06.77-2.2,1.01-3.43.12-.61.21-1.25.27-1.92.05-.67.08-1.36.01-2.13Z"/>
    <path class="st20" d="M366.92,26.96c-.77.05-1.45.19-2.11.34-.65.16-1.27.35-1.86.56-1.18.42-2.25.94-3.23,1.52-1.98,1.17-3.63,2.61-5.05,4.26-1.42,1.65-2.59,3.51-3.45,5.64-.43,1.06-.77,2.2-1.01,3.43-.12.61-.21,1.25-.26,1.92-.05.67-.08,1.37,0,2.14.77-.05,1.46-.18,2.11-.33.65-.15,1.27-.34,1.86-.55,1.18-.42,2.25-.93,3.24-1.52,1.97-1.17,3.63-2.61,5.04-4.27,1.41-1.65,2.58-3.51,3.44-5.64.43-1.07.77-2.21,1.01-3.43.12-.61.21-1.25.27-1.92.05-.67.08-1.36.01-2.14Z"/>
    <path class="st11" d="M344.57,26.96c-.69.35-1.27.73-1.81,1.13-.54.4-1.03.81-1.49,1.23-.92.85-1.71,1.73-2.4,2.66-1.37,1.84-2.34,3.81-3.02,5.88-.67,2.07-1.03,4.23-1,6.53.02,1.15.14,2.33.4,3.55.13.61.29,1.24.5,1.88.21.64.46,1.29.82,1.98.7-.35,1.27-.73,1.82-1.12.54-.4,1.04-.81,1.5-1.23.92-.84,1.71-1.73,2.39-2.65,1.37-1.85,2.34-3.81,3-5.89.66-2.07,1.03-4.24.99-6.53-.02-1.15-.14-2.33-.39-3.55-.13-.61-.29-1.24-.5-1.88-.21-.64-.46-1.29-.81-1.97Z"/>
    <path class="st12" d="M363.63,8.64c-.75.18-1.4.43-2.02.69-.62.27-1.19.56-1.73.86-1.09.62-2.06,1.3-2.93,2.05-1.75,1.48-3.14,3.19-4.26,5.05-1.12,1.86-1.96,3.89-2.45,6.14-.24,1.12-.38,2.3-.41,3.55-.01.62,0,1.27.07,1.94.06.67.15,1.36.35,2.11.75-.18,1.4-.42,2.03-.69.61-.26,1.19-.55,1.74-.86,1.09-.62,2.06-1.3,2.94-2.05,1.75-1.49,3.14-3.19,4.25-5.05,1.11-1.87,1.95-3.9,2.43-6.15.24-1.12.39-2.3.42-3.55.01-.63,0-1.27-.06-1.94-.07-.67-.15-1.36-.35-2.11Z"/>
    <path class="st1" d="M362.03,73.06c-.66-.4-1.29-.69-1.91-.95-.62-.25-1.23-.46-1.83-.63-1.2-.34-2.37-.55-3.52-.65-2.29-.2-4.47,0-6.59.51-2.11.51-4.15,1.34-6.09,2.57-.97.62-1.91,1.34-2.82,2.2-.46.43-.9.9-1.33,1.41-.43.52-.86,1.06-1.26,1.73.66.41,1.29.7,1.91.96.62.25,1.23.46,1.84.64,1.2.34,2.37.55,3.51.65,2.29.2,4.47,0,6.58-.53,2.11-.52,4.15-1.35,6.08-2.58.97-.61,1.91-1.34,2.82-2.2.45-.43.9-.9,1.33-1.4.43-.51.86-1.06,1.26-1.72Z"/>
    <path class="st11" d="M400,72c-.59-.5-1.16-.89-1.74-1.24-.57-.35-1.14-.65-1.71-.91-1.13-.52-2.25-.91-3.37-1.19-2.23-.56-4.42-.7-6.59-.53-2.17.17-4.31.67-6.41,1.58-1.05.46-2.1,1.02-3.13,1.73-.52.35-1.03.74-1.54,1.18-.51.44-1.02.91-1.51,1.51.59.51,1.16.89,1.74,1.25.57.35,1.14.65,1.71.91,1.13.53,2.26.92,3.37,1.2,2.23.56,4.42.7,6.58.52,2.17-.18,4.31-.68,6.41-1.59,1.05-.45,2.1-1.02,3.13-1.73.52-.35,1.03-.74,1.54-1.17.51-.44,1.02-.91,1.51-1.51Z"/>
    <path class="st13" d="M361.48,98.45c-.21-.75-.48-1.38-.76-1.99-.29-.61-.6-1.17-.92-1.7-.66-1.07-1.37-2.01-2.15-2.86-1.55-1.7-3.3-3.03-5.2-4.08-1.9-1.05-3.96-1.83-6.22-2.23-1.13-.2-2.31-.31-3.56-.29-.63,0-1.27.05-1.93.13-.67.09-1.35.2-2.1.43.21.75.48,1.39.76,2,.28.61.59,1.17.92,1.71.65,1.07,1.37,2.01,2.15,2.86,1.55,1.7,3.3,3.02,5.2,4.07,1.91,1.04,3.97,1.81,6.23,2.22,1.13.2,2.31.31,3.56.29.63,0,1.27-.05,1.94-.13.67-.09,1.35-.2,2.09-.42Z"/>
    <path class="st0" d="M384.11,62.19c-.61-.48-1.2-.84-1.79-1.17-.59-.32-1.17-.6-1.74-.84-1.16-.48-2.29-.82-3.42-1.06-2.25-.47-4.45-.52-6.6-.26-2.16.26-4.28.84-6.34,1.84-1.03.5-2.06,1.11-3.06,1.86-.5.37-1,.79-1.49,1.24-.49.46-.98.96-1.45,1.58.61.48,1.2.85,1.79,1.18.59.32,1.17.6,1.75.84,1.15.48,2.29.83,3.41,1.06,2.25.46,4.45.52,6.6.25,2.16-.27,4.27-.85,6.34-1.85,1.03-.5,2.06-1.11,3.06-1.85.5-.38,1-.79,1.49-1.24.49-.46.98-.95,1.45-1.57Z"/>
    <path class="st4" d="M372.69,44.12c-.77-.13-1.46-.15-2.13-.15-.67,0-1.31.04-1.93.11-1.24.14-2.4.39-3.5.73-2.19.68-4.14,1.7-5.9,2.97-1.76,1.28-3.33,2.81-4.66,4.68-.66.94-1.26,1.97-1.77,3.11-.26.57-.49,1.17-.7,1.81-.21.64-.39,1.31-.5,2.08.77.13,1.46.16,2.13.16.67,0,1.31-.04,1.94-.11,1.24-.14,2.4-.39,3.5-.73,2.19-.68,4.13-1.7,5.89-2.99,1.76-1.28,3.33-2.82,4.65-4.69.66-.94,1.26-1.96,1.78-3.1.26-.57.5-1.17.71-1.8.21-.64.39-1.31.51-2.08Z"/>
    <path class="st18" d="M398.49,40.59c-.74-.23-1.42-.35-2.09-.44-.66-.09-1.3-.13-1.93-.15-1.25-.03-2.44.06-3.57.25-2.27.38-4.33,1.12-6.25,2.15-1.92,1.03-3.68,2.33-5.25,4.01-.78.84-1.51,1.78-2.18,2.84-.33.53-.64,1.09-.94,1.7-.29.61-.57,1.25-.78,1.99.74.23,1.42.35,2.09.45.67.09,1.31.14,1.94.15,1.25.03,2.44-.06,3.57-.25,2.27-.38,4.33-1.13,6.24-2.16,1.91-1.04,3.67-2.34,5.24-4.02.78-.84,1.51-1.78,2.18-2.83.33-.53.65-1.09.94-1.69.29-.61.57-1.24.78-1.99Z"/>
    <path class="st2" d="M386.99,21.31c-.78.02-1.46.13-2.12.25-.66.13-1.28.29-1.88.48-1.19.37-2.28.84-3.3,1.39-2.02,1.09-3.74,2.46-5.22,4.04-1.49,1.59-2.73,3.4-3.68,5.49-.47,1.05-.86,2.17-1.15,3.39-.14.61-.26,1.24-.34,1.91-.08.67-.13,1.36-.1,2.14.78-.02,1.46-.12,2.13-.25.66-.13,1.28-.29,1.88-.48,1.19-.37,2.29-.84,3.29-1.39,2.02-1.09,3.74-2.46,5.22-4.05,1.48-1.59,2.72-3.4,3.67-5.5.47-1.05.86-2.17,1.15-3.38.14-.61.26-1.24.35-1.91.08-.67.14-1.36.1-2.13Z"/>
    <path class="st14" d="M384.18,86.16c-.51-.58-1.02-1.05-1.54-1.48-.51-.42-1.03-.8-1.56-1.15-1.04-.68-2.1-1.24-3.16-1.68-2.12-.88-4.27-1.34-6.44-1.49-2.17-.15-4.36.03-6.58.62-1.11.3-2.23.71-3.35,1.25-.56.27-1.13.59-1.69.94-.57.37-1.14.76-1.72,1.28.5.59,1.02,1.05,1.53,1.49.52.43,1.04.81,1.56,1.16,1.04.69,2.1,1.24,3.16,1.68,2.12.88,4.27,1.34,6.44,1.48,2.17.14,4.36-.04,6.58-.63,1.11-.3,2.23-.71,3.35-1.25.56-.27,1.13-.58,1.69-.94.57-.36,1.14-.75,1.72-1.27Z"/>
    <path class="st11" d="M313.35,0c-.44.63-.77,1.25-1.06,1.85-.29.61-.53,1.21-.73,1.8-.41,1.18-.68,2.34-.85,3.47-.33,2.27-.25,4.47.14,6.61.39,2.14,1.1,4.22,2.22,6.22.56,1,1.23,1.98,2.03,2.94.41.48.85.95,1.33,1.41.49.46,1.01.92,1.66,1.35.45-.63.77-1.25,1.06-1.85.29-.61.53-1.21.74-1.8.41-1.18.68-2.33.85-3.47.33-2.27.24-4.47-.15-6.6-.4-2.14-1.11-4.22-2.23-6.22-.56-1-1.23-1.98-2.04-2.94-.4-.48-.84-.95-1.33-1.41-.49-.46-1.01-.92-1.65-1.35Z"/>
    <path class="st19" d="M292.06,8.64c.75.18,1.4.43,2.02.69.61.27,1.19.56,1.73.86,1.09.62,2.06,1.3,2.93,2.05,1.75,1.48,3.14,3.19,4.26,5.05,1.12,1.86,1.96,3.89,2.44,6.14.24,1.12.39,2.3.42,3.55.01.62,0,1.27-.06,1.94-.06.67-.15,1.36-.35,2.11-.75-.18-1.4-.42-2.02-.69-.62-.26-1.19-.55-1.74-.86-1.09-.62-2.06-1.3-2.93-2.05-1.75-1.49-3.14-3.19-4.25-5.05-1.11-1.87-1.95-3.9-2.43-6.15-.24-1.12-.39-2.3-.42-3.55-.01-.63,0-1.27.06-1.94.06-.67.15-1.36.35-2.11Z"/>
    <path class="st6" d="M255.68,72c.58-.5,1.16-.89,1.74-1.24.57-.35,1.14-.65,1.71-.91,1.13-.52,2.26-.91,3.37-1.19,2.23-.56,4.42-.7,6.59-.53,2.17.17,4.31.67,6.42,1.58,1.05.46,2.1,1.02,3.13,1.73.52.35,1.03.74,1.54,1.18.51.44,1.02.91,1.51,1.51-.59.51-1.17.89-1.74,1.25-.57.35-1.14.65-1.71.91-1.13.53-2.26.92-3.37,1.2-2.23.56-4.42.7-6.59.52-2.16-.18-4.31-.68-6.41-1.59-1.05-.45-2.1-1.02-3.13-1.73-.51-.35-1.03-.74-1.54-1.17-.51-.44-1.02-.91-1.51-1.51Z"/>
    <path class="st18" d="M257.19,40.59c.74-.23,1.42-.35,2.09-.44.66-.09,1.31-.13,1.93-.15,1.25-.03,2.43.06,3.57.25,2.26.38,4.33,1.12,6.25,2.15,1.92,1.03,3.68,2.33,5.25,4.01.78.84,1.51,1.78,2.17,2.84.33.53.65,1.09.94,1.7.29.61.56,1.25.78,1.99-.74.23-1.42.35-2.09.45-.67.09-1.31.14-1.93.15-1.25.03-2.44-.06-3.57-.25-2.26-.38-4.33-1.13-6.24-2.16-1.91-1.04-3.68-2.34-5.24-4.02-.78-.84-1.51-1.78-2.18-2.83-.33-.53-.65-1.09-.94-1.69-.29-.61-.56-1.24-.78-1.99Z"/>
    <path class="st10" d="M268.69,21.31c.77.02,1.46.13,2.12.25.66.13,1.28.29,1.88.48,1.19.37,2.28.84,3.29,1.39,2.02,1.09,3.74,2.46,5.23,4.04,1.48,1.59,2.73,3.4,3.67,5.49.47,1.05.86,2.17,1.15,3.39.14.61.26,1.24.34,1.91.08.67.13,1.36.1,2.14-.78-.02-1.46-.12-2.12-.25-.66-.13-1.28-.29-1.88-.48-1.19-.37-2.28-.84-3.3-1.39-2.02-1.09-3.74-2.46-5.21-4.05-1.48-1.59-2.72-3.4-3.66-5.5-.47-1.05-.86-2.17-1.15-3.38-.15-.61-.26-1.24-.35-1.91-.08-.67-.13-1.36-.1-2.13Z"/>
    <path class="st5" d="M271.5,86.16c.51-.58,1.02-1.05,1.54-1.48.52-.42,1.04-.8,1.56-1.15,1.05-.68,2.1-1.24,3.16-1.68,2.12-.88,4.27-1.34,6.44-1.49,2.17-.15,4.36.03,6.58.62,1.11.3,2.23.71,3.35,1.25.56.27,1.13.59,1.7.94.57.37,1.14.76,1.72,1.28-.51.59-1.02,1.05-1.54,1.49-.51.43-1.03.81-1.56,1.16-1.04.69-2.1,1.24-3.15,1.68-2.12.88-4.27,1.34-6.44,1.48-2.17.14-4.36-.04-6.58-.63-1.11-.3-2.22-.71-3.35-1.25-.56-.27-1.13-.58-1.7-.94-.57-.36-1.14-.75-1.72-1.27Z"/>
    <path class="st15" d="M309.6,149.07c-3.27,0-6.12-1.36-8.47-4.05-3.07-3.17-5.01-6.19-5.91-9.22l-.51-1.56c-.12-.43.07-.7.25-.85.29-.23.75-.36,1.34-.36.36,0,.77.05,1.15.14,1.29.3,1.49.77,1.78,1.48l.04.12c.69,3.98,2.77,7.08,6.97,10.35.8.63,1.64.92,2.66.92,6.48,0,10.41-8.76,12.64-13.9.47-1.08,2.5-6.29,2.85-9.76.78-8.32-.1-30.24-.05-34.45.03-2.48.06-4.8.02-6.3.1-.8.77-1.28,1.74-1.28,1.04,0,3.21.65,3.64,1.69l.19.47v.05c.01.42.01,1.36.02,2.67.02,7.81.05,45.98,1.89,50.4,1.19,2.86,2.96,6.14,6.16,6.14.16,0,.31,0,.48-.02,7.72-.83,14.75-6.43,18.42-10.98l.03-.04.04-.03c.51-.4,1.24-.63,2.01-.63.83,0,1.6.26,2.08.7.54.5.66,1.17.33,1.9l-.02.05-.2.22c-.13.14-.27.29-.41.44l-.76.79c-3.83,3.97-10.23,10.63-18.7,10.74-4.55,0-10.3-.8-14.43-7.04l-.57-1.35c-.26-.63-.5-1.41-.71-2.34l-.17-.73-.69,1.34c-.55,1.01-1.07,2.03-1.59,3.05-2.92,5.78-5.68,11.24-13.52,11.24h-.01Z"/>
  </g>
</svg>